# xmcd
#
# Track frame offsets: 
#        150
#        18707
#        35179
#        48892
#        67338
#        89000
#        111519
#        127964
#        146023
#        156739
#        176195
#        190483
#
# Disc length: 2832 seconds
#
# Revision: 0
# Processed by: cddbd v1.5.2PL0 Copyright (c) Steve Scherf et al.
# Submitted via: ExactAudioCopy v1.0b4
#
DISCID=c50b0e0c
DTITLE=Innes Sibun - Blues Transfusion
DYEAR=2015
DGENRE=Blues Rock
TTITLE0=Love Light
TTITLE1=I'll Take Care Of You
TTITLE2=Old Time Used To Be
TTITLE3=Blues For Sherman
TTITLE4=One Of These Days Home
TTITLE5=Esma
TTITLE6=Find My Way Home
TTITLE7=Stari Most
TTITLE8=Why Don't You Call Me
TTITLE9=I Fall Apart
TTITLE10=I Used To Be Your Man
TTITLE11=Can't Give Up The Fight
EXTD=
EXTT0=
EXTT1=
EXTT2=
EXTT3=
EXTT4=
EXTT5=
EXTT6=
EXTT7=
EXTT8=
EXTT9=
EXTT10=
EXTT11=
PLAYORDER=
